<svg width="85" height="85" viewBox="0 0 85 85" fill="none" xmlns="http://www.w3.org/2000/svg">
<circle cx="42.5" cy="42.5" r="42.5" fill="#8D0404"/>
<path d="M41.3117 45.76V58.66C41.3117 60.34 40.7917 61.7 39.7517 62.74C38.7117 63.74 37.3517 64.24 35.6717 64.24H31.3517C29.6717 64.24 28.3117 63.74 27.2717 62.74C26.2317 61.7 25.7117 60.34 25.7117 58.66V27.34C25.7117 25.66 26.2317 24.32 27.2717 23.32C28.3117 22.28 29.6717 21.76 31.3517 21.76H35.6717C37.3517 21.76 38.7117 22.28 39.7517 23.32C40.7917 24.32 41.3117 25.66 41.3117 27.34V40.78L35.6117 40.18V27.64C35.6117 27.44 35.5117 27.34 35.3117 27.34H31.7117C31.5117 27.34 31.4117 27.44 31.4117 27.64V58.36C31.4117 58.56 31.5117 58.66 31.7117 58.66H35.3117C35.5117 58.66 35.6117 58.56 35.6117 58.36V45.76H41.3117ZM54.7859 22H60.4859L56.7659 64H46.8059L43.0859 22H48.7859L51.7859 55.18L54.7859 22Z" fill="white"/>
</svg>
